<svg xmlns="http://www.w3.org/2000/svg" width="256" height="256" viewBox="0 0 67.733 67.733"><style><![CDATA[.B{fill:#4682b4}.C{stroke:#4682b4}.D{stroke-width:.794}.E{font-size:14px}.F{font-family:sans-serif}.G{stroke-width:.529}.H{stroke-dasharray:1.05835014, 1.05835013999999994}]]></style><g transform="matrix(.499992 0 0 .499992 -335.80317 109.823337)"><path d="M804.02-133.832h-3.065v-76.622c0-1.692-1.372-3.065-3.065-3.065h-55.475v-3.065c0-1.692-1.372-3.065-3.065-3.065s-3.065 1.372-3.065 3.065v3.065h-55.475c-1.692 0-3.065 1.372-3.065 3.065v76.623h-3.065c-1.692 0-3.065 1.372-3.065 3.065s1.372 3.065 3.065 3.065h61.604v14.102L713.29-89.355c-1.165 1.228-1.114 3.168.114 4.333s3.168 1.114 4.333-.114l18.55-19.557v17.448c0 1.692 1.372 3.065 3.065 3.065s3.065-1.372 3.065-3.065v-17.448l18.55 19.557c.603.635 1.412.956 2.224.956.757 0 1.516-.28 2.11-.84 1.228-1.165 1.28-3.105.114-4.333L742.417-113.6v-14.102h61.604c1.692 0 3.065-1.372 3.065-3.065s-1.372-3.065-3.065-3.065zM683.877-207.4h110.95v73.558h-110.95z" class="B"/><g transform="matrix(.64 0 0 .64 459.12716 -67.937421)"><g class="C"><path d="M395.027-195.735v72.25m84.668-72.25v72.25" stroke-dasharray="2.64587535, 2.64587534999999985" class="G"/><path d="M382.856-212.297h24.342v16.032h-24.342z" fill="none" class="D"/></g><text transform="matrix(.529175 0 0 .529175 378.62275 -213.88403)" y="22.995" x="15" textLength="32" lengthAdjust="spacingAndGlyphs" class="B E F">Alice</text><path d="M382.856-124.015h24.342v16.032h-24.342z" fill="none" class="C D"/><text transform="matrix(.529175 0 0 .529175 378.62275 -213.88403)" y="189.823" x="15" textLength="32" lengthAdjust="spacingAndGlyphs" class="B E F">Alice</text><path d="M468.583-212.297h22.225v16.032h-22.225z" fill="none" class="C D"/><text transform="matrix(.529175 0 0 .529175 378.62275 -213.88403)" y="22.995" x="177" textLength="28" lengthAdjust="spacingAndGlyphs" class="B E F">Bob</text><path d="M468.583-124.015h22.225v16.032h-22.225z" fill="none" class="C D"/><text transform="matrix(.529175 0 0 .529175 378.62275 -213.88403)" y="189.823" x="177" textLength="28" lengthAdjust="spacingAndGlyphs" class="B E F">Bob</text><g class="C"><g class="G"><path d="M473.345-181.377l5.292 2.117-5.292 2.117 2.117-2.117z" class="B"/><path d="M395.027-179.26h81.493"/><path d="M400.848-165.96l-5.292 2.117 5.292 2.117-2.117-2.117z" class="B"/><path d="M397.673-163.844h81.493" class="H"/><path d="M473.345-150.544l5.292 2.117-5.292 2.117 2.117-2.117z" class="B"/></g><path d="M395.027-148.428h81.493" stroke-width=".528"/><g class="G"><path d="M400.848-135.128l-5.292 2.117 5.292 2.117-2.117-2.117z" class="B"/><path d="M397.673-133.01h81.493" class="H"/></g></g></g></g></svg>